<svg xmlns="http://www.w3.org/2000/svg" viewBox="0 0 24 24">
  <path fill="#3498db" d="M24 22.224v-5.327h-7.103V24h5.327c.977 0 1.776-.799 1.776-1.776z"/>
  <path fill="#00b066" d="M6.659 16.277C.799 16.81 3.285 22.226 0 23.824c4.262.799 8.79-1.154 8.967-5.238-.088-.178-2.308-2.309-2.308-2.309z"/>
  <path fill="#aec8e0" d="M22.551 2.693c-.444-.355-.888-.089-.888-.089s-3.565 2.674-7.135 5.312c-.228 2.069-1.307 3.889-2.493 5.159.22-.126.465-.316.716-.603l1.675-1.912.077 2.541c.014.466-.05.896-.156 1.302.847-.928 1.713-1.991 2.61-3.187 2.664-3.64 5.682-7.636 5.682-7.636s.268-.443-.088-.887zM10.239 17.248c-.662 0-1.247-.102-1.745-.291L9.5 17.964c.571-.169 1.143-.446 1.717-.807-.315.058-.642.091-.978.091z"/>
  <path fill="#3498db" d="M14.079 9.794c-.475 1.286-1.233 2.413-2.044 3.281.22-.126.465-.316.716-.603l1.675-1.912.077 2.541c.035 1.179-.318 2.187-1.024 2.913-.366.378-.833.673-1.361.882h4.779V9.794h-2.818z"/>
  <path fill="#3498db" d="M10.906 14.245c-.297-.074-.297-.445-.297-.445v-.742c1.484-1.261 2.968-3.487 2.968-5.935 0-2.597-1.41-4.897-3.413-6.158C9.571.594 8.903.297 8.235.148 7.79.074 7.271 0 6.751 0 3.116 0 .074 3.116 0 6.974v.148c0 1.41.371 2.745 1.039 3.858 1.187 2.003 3.19 3.264 5.564 3.264.371 0 1.039-.074 1.039-.074v.148c0 1.41 1.187 1.929 2.597 1.929s3.339-.668 3.264-3.116c-1.039 1.188-2.152 1.262-2.597 1.114zM7.568 10.09s-.074 1.484-.074 2.893c0 .371-.594.594-.964.594-1.113 0-1.781-1.558-2.226-3.932 1.484-.742 2.3-.519 2.819-.297s.445.742.445.742zM9.2 9.422c-1.929-1.187-4.378-.519-4.971-.148 0-.223-.074-.445-.074-.594-.074-.519-.074-1.038-.074-1.558 0-1.632.223-3.19.594-4.303C5.12 1.484 5.862.593 6.678.593c.223 0 .445.074.668.223.594.371 1.039 1.113 1.41 2.077.37 1.113.592 2.597.592 4.229 0 .817-.074 1.558-.148 2.3z"/>
  <path fill="#dce8f3" d="M24 16.897h-7.103V9.794h5.327c.977 0 1.776.799 1.776 1.776v5.327zm-11.882 0c-.568.225-1.206.351-1.879.351-.154 0-.298-.013-.444-.024v5c0 .977.799 1.776 1.776 1.776h5.327v-7.103h-4.78z"/>
</svg>